PathFileType	4	(X/Y/Z)	./resultDataOpenSim/trcMotMarkerGrf/sub09/qtm-12-01.trc
DataRate	CameraRate	NumFrames	NumMarkers	Units	OrigDataRate	OrigDataStartFrame	OrigNumFrames
250.000000	250.000000	9	24	m	250.000000	257	513
Frame#	Time	L.Toe.Tip			R.Toe.Tip			L.Ankle.Lat			R.Ankle.Lat			L.Ankle.Med			R.Ankle.Med			L.Heel			R.Heel			L.Knee.Lat			R.Knee.Lat			L.Knee.Med			R.Knee.Med			L.Thigh.Upper			R.Thigh.Upper			L.ASIS			R.ASIS			V.Sacral			L.Acromium			R.Acromium			C7			L.Elbow			R.Elbow			L.Wrist.Lat			R.Wrist.Lat
		X1	Y1	Z1	X2	Y2	Z2	X3	Y3	Z3	X4	Y4	Z4	X5	Y5	Z5	X6	Y6	Z6	X7	Y7	Z7	X8	Y8	Z8	X9	Y9	Z9	X10	Y10	Z10	X11	Y11	Z11	X12	Y12	Z12	X13	Y13	Z13	X14	Y14	Z14	X15	Y15	Z15	X16	Y16	Z16	X17	Y17	Z17	X18	Y18	Z18	X19	Y19	Z19	X20	Y20	Z20	X21	Y21	Z21	X22	Y22	Z22	X23	Y23	Z23	X24	Y24	Z24

257	1.024	0.13673862	0.014745249	-0.012062745	0.55746376	0.11011877	0.11381795	-0.0098555367	0.051699971	-0.04601723	0.40892115	0.1081263	0.13220768	0.014820061	0.0653143	0.050382311	0.42963589	0.14797605	0.040710438	-0.083209743	0.020794636	0.0045937189	0.35098838	0.074923939	0.075591422	0.12653277	0.44708768	-0.1031054	0.45208429	0.56101595	0.17783037	0.1251602	0.45003595	0.023757635	0.4531035	0.54524541	0.052135808	0.18155439	0.86598032	-0.15887276	0.19433167	0.87759108	0.2140159	0.27908851	0.94741975	-0.1027182	0.27070349	0.9641025	0.14050666	0.11046795	1.011442	0.014492893	0.30264294	1.4068294	-0.13338523	0.24560915	1.4188927	0.192385	0.20899246	1.4634568	0.019637656	0.15583765	1.071363	-0.22401377	0.055382307	1.1110798	0.2541691	0.32122048	0.86039088	-0.22181607	0.1284308	0.85128499	0.29990246
258	1.028	0.13669002	0.014692528	-0.012039649	0.57603731	0.11037605	0.11425223	-0.0099305438	0.052181678	-0.045293171	0.42726755	0.10553826	0.13182939	0.015492432	0.065747465	0.050822786	0.44762572	0.14603475	0.040567837	-0.08309588	0.021495358	0.0058038904	0.37050232	0.071345813	0.074789364	0.12747508	0.44729618	-0.10318078	0.45787885	0.56007533	0.17825513	0.12667117	0.45024498	0.023705535	0.46000143	0.54416929	0.052140006	0.18699579	0.86540593	-0.15896238	0.200263	0.8766499	0.21420206	0.28498713	0.94654609	-0.10274729	0.27686833	0.96313941	0.14058047	0.11648998	1.0105516	0.014721046	0.3086264	1.4060993	-0.13314502	0.25139559	1.4180177	0.1925875	0.21485414	1.4626138	0.01982488	0.16208163	1.0705434	-0.22405522	0.060779765	1.110362	0.2539998	0.32776006	0.85980156	-0.2212039	0.13329034	0.85042128	0.30027012
259	1.032	0.13666472	0.014641294	-0.012029464	0.59451567	0.11068497	0.11464205	-0.010005919	0.052717874	-0.044545219	0.44542961	0.10319224	0.13150903	0.016179662	0.06618594	0.051322991	0.4655414	0.14428982	0.040480108	-0.082969775	0.022247517	0.0070476919	0.38986991	0.068076569	0.074116616	0.12851032	0.44753362	-0.10324685	0.46353076	0.55895449	0.17867768	0.12826029	0.45048007	0.023642749	0.46648421	0.54295815	0.052426497	0.19230505	0.86478885	-0.15903989	0.20621199	0.87565018	0.21438907	0.2909087	0.94564002	-0.10277942	0.28307063	0.96212077	0.1406615	0.12254666	1.0096065	0.014957809	0.31462883	1.4053225	-0.13289419	0.25718986	1.4171098	0.19278791	0.22070724	1.4617155	0.019986564	0.16832854	1.0696891	-0.22410218	0.06619884	1.1095879	0.25384811	0.33426943	0.85916485	-0.22057385	0.13818838	0.84952527	0.30065325
260	1.036	0.13666439	0.014599785	-0.012019083	0.61286807	0.11106934	0.11494407	-0.010080549	0.053307758	-0.043790133	0.46349158	0.10106998	0.1312547	0.016819684	0.066632676	0.051866743	0.48332954	0.14274845	0.040428334	-0.082826325	0.023067266	0.0082541883	0.40910296	0.065112295	0.073537634	0.1295952	0.44779983	-0.10326542	0.46903612	0.55764449	0.17910128	0.12992564	0.45074928	0.023581129	0.47261708	0.5416215	0.052926993	0.19740056	0.86411	-0.15903242	0.21217944	0.8745966	0.21457586	0.2968397	0.94470281	-0.10281567	0.289312	0.96105149	0.14074588	0.1286309	1.0086044	0.015201319	0.32064247	1.4045016	-0.13263926	0.26296932	1.4161741	0.19300302	0.22657651	1.460774	0.020149587	0.17458368	1.0688088	-0.22415373	0.071776914	1.1087487	0.2537423	0.34075051	0.85848302	-0.21993246	0.14313525	0.84860436	0.30105225
261	1.04	0.13667735	0.014566326	-0.012000611	0.6310766	0.11157061	0.11515391	-0.010149768	0.053948859	-0.043040332	0.48152476	0.099133941	0.13104167	0.017413377	0.067099646	0.052417589	0.50094338	0.14141042	0.040401765	-0.082667073	0.023954581	0.0094079995	0.4281983	0.062440105	0.073034934	0.13064713	0.44809258	-0.10319184	0.4744068	0.55615035	0.17953582	0.13166256	0.45104766	0.02353106	0.47854342	0.54015999	0.053503281	0.20240561	0.86337494	-0.15892487	0.21816347	0.87349113	0.21476207	0.30277421	0.94374109	-0.10285152	0.2955963	0.95993509	0.14083023	0.13472905	1.0075453	0.015449663	0.32666269	1.40364	-0.13238186	0.26873346	1.4152153	0.19323967	0.23248146	1.4598075	0.020336183	0.18084983	1.0679073	-0.22420045	0.077514791	1.107858	0.25368274	0.34721467	0.85775456	-0.21929367	0.14814813	0.8476648	0.30147177
262	1.044	0.13669213	0.014536292	-0.011977739	0.64912963	0.11223005	0.11527996	-0.010206828	0.054635712	-0.042303291	0.49952309	0.097373686	0.13085818	0.0179859	0.067598382	0.052956904	0.51836014	0.14026822	0.040405335	-0.082494728	0.024896363	0.010522204	0.44713763	0.060044492	0.072618837	0.13162246	0.44841102	-0.10299966	0.47967757	0.55448739	0.17998208	0.13341938	0.45135519	0.023523441	0.484353	0.5385641	0.05406147	0.20751902	0.86260216	-0.15875683	0.2241633	0.87233235	0.21494593	0.30871205	0.94276024	-0.10288616	0.30192692	0.95877501	0.14091069	0.14082026	1.006426	0.015702821	0.33269085	1.4027383	-0.13212004	0.27449266	1.4142324	0.19349159	0.2384203	1.4588211	0.020542556	0.18712773	1.066977	-0.22423667	0.083347133	1.1069331	0.25365529	0.3536738	0.85697724	-0.21866489	0.15323344	0.84670285	0.30191236
263	1.048	0.1367047	0.014508369	-0.011957081	0.6670155	0.11308063	0.11530356	-0.010243833	0.055358836	-0.041582712	0.51742751	0.09580353	0.13071458	0.018555344	0.068135057	0.053486851	0.53556796	0.13930979	0.040454894	-0.082308282	0.025879735	0.011605305	0.46589589	0.057906892	0.072307606	0.13259109	0.44875674	-0.10273402	0.48489372	0.55266982	0.18042368	0.13518585	0.45165122	0.023560995	0.49007381	0.53682448	0.054561532	0.21287092	0.86180995	-0.15861574	0.2301866	0.87112196	0.2151257	0.31465123	0.94175857	-0.10292329	0.30830515	0.95757705	0.14098388	0.14688657	1.0052357	0.015961478	0.33873356	1.4017984	-0.13184985	0.28025696	1.413221	0.19374804	0.24437967	1.457807	0.020753459	0.19341798	1.066007	-0.22426854	0.089225712	1.1059795	0.25364769	0.36013108	0.85615072	-0.21804362	0.15838705	0.84571152	0.3023713
264	1.052	0.13671869	0.014485736	-0.011942571	0.68470431	0.11415692	0.11520049	-0.010255051	0.05611371	-0.040889427	0.5351674	0.094436129	0.1306248	0.019135625	0.068711892	0.054008773	0.55254968	0.13853209	0.04056663	-0.082107555	0.026899996	0.012646362	0.48444167	0.055998653	0.072105772	0.13370981	0.4491236	-0.10250558	0.49008008	0.55070509	0.1808389	0.13700539	0.45192409	0.023618155	0.49570166	0.53493718	0.054993498	0.21847625	0.86101367	-0.15857561	0.23624576	0.8698628	0.2153011	0.32058894	0.94072929	-0.10296264	0.31473143	0.9563481	0.14104818	0.15294037	1.0039763	0.016227484	0.34479838	1.4008252	-0.13156703	0.28603843	1.4121773	0.19400385	0.25035222	1.4567598	0.020967396	0.19971743	1.0649937	-0.22431112	0.095132735	1.1049956	0.25365407	0.36658092	0.85527548	-0.2174262	0.16360533	0.84469164	0.3028486
265	1.056	0.13674055	0.014473225	-0.011935027	0.70213797	0.11550278	0.11499163	-0.010238911	0.056902354	-0.040245054	0.55267203	0.093273546	0.13059583	0.019738246	0.069328284	0.054509363	0.56927751	0.13795065	0.040745571	-0.081896417	0.027958523	0.013618703	0.50273653	0.054285553	0.072004047	0.1350809	0.44949098	-0.10239316	0.49522563	0.54859238	0.18120953	0.13892507	0.45216868	0.023672993	0.5012268	0.53289973	0.055357857	0.22422959	0.86021851	-0.15860782	0.24234857	0.86855402	0.21547342	0.32652763	0.939666	-0.1030008	0.3212084	0.95509547	0.14110373	0.15902477	1.0026827	0.016499855	0.35088929	1.3998237	-0.13127055	0.29184539	1.4111008	0.19426139	0.25633533	1.4556809	0.021191403	0.20602326	1.0639439	-0.22437348	0.10106434	1.1039785	0.2536742	0.37301421	0.85435065	-0.21681297	0.16888108	0.84365098	0.30334292
